<svg xmlns="http://www.w3.org/2000/svg" xmlns:xlink="http://www.w3.org/1999/xlink" width="1080" zoomAndPan="magnify" viewBox="0 0 810 809.999993" height="1080" preserveAspectRatio="xMidYMid meet" version="1.0"><defs><clipPath id="6440f861d7"><path d="M 0 55 L 810 55 L 810 728.925781 L 0 728.925781 Z M 0 55 " clip-rule="nonzero"/></clipPath></defs><rect x="-81" width="972" fill="#ffffff" y="-80.999999" height="971.999992" fill-opacity="1"/><rect x="-81" width="972" fill="#ffffff" y="-80.999999" height="971.999992" fill-opacity="1"/><g clip-path="url(#6440f861d7)"><path fill="#acadf9" d="M 263.953125 60.351562 C 263.074219 56.828125 259.726562 54.714844 256.207031 55.597656 C 253.917969 56.125 251.980469 58.0625 251.453125 60.351562 C 240.183594 102.613281 212.359375 180.617188 151.082031 228.339844 C 108.46875 261.441406 58.636719 284.335938 5.8125 295.074219 C 2.289062 295.78125 0 299.125 0.703125 302.648438 C 1.234375 305.113281 2.992188 306.875 5.28125 307.578125 C 48.246094 319.550781 122.910156 345.789062 160.765625 390.339844 C 190.703125 425.554688 217.292969 513.773438 228.914062 556.917969 C 229.96875 560.261719 233.492188 562.375 236.835938 561.320312 C 238.949219 560.789062 240.710938 559.03125 241.238281 556.917969 C 253.214844 513.070312 284.203125 422.386719 342.136719 383.824219 C 393.90625 349.308594 451.488281 332.054688 484.0625 324.304688 C 487.585938 323.425781 489.523438 319.902344 488.640625 316.382812 C 488.113281 314.269531 486.527344 312.507812 484.414062 311.980469 C 445.148438 300.359375 372.070312 274.121094 342.136719 234.855469 C 295.648438 173.925781 273.464844 100.5 263.953125 60.351562 Z M 589.539062 422.210938 C 589.011719 420.097656 586.898438 418.863281 584.785156 419.394531 C 583.375 419.746094 582.320312 420.800781 581.96875 422.210938 C 575.101562 448.09375 558.019531 495.8125 520.511719 524.867188 C 494.453125 545.117188 463.988281 559.03125 431.589844 565.542969 C 429.476562 565.898438 428.066406 568.011719 428.59375 570.125 C 428.949219 571.53125 430.003906 572.765625 431.414062 573.117188 C 457.648438 580.511719 503.433594 596.359375 526.5 623.652344 C 544.8125 645.136719 561.011719 699.195312 568.234375 725.609375 C 568.761719 727.722656 571.050781 728.953125 572.988281 728.425781 C 574.394531 728.074219 575.277344 727.015625 575.804688 725.609375 C 583.199219 698.84375 602.042969 643.375 637.433594 619.78125 C 669.128906 598.648438 704.347656 588.085938 724.246094 583.328125 C 726.359375 582.800781 727.589844 580.6875 727.0625 578.574219 C 726.710938 577.167969 725.652344 576.109375 724.421875 575.757812 C 700.296875 568.539062 655.746094 552.691406 637.433594 528.566406 C 608.910156 491.765625 595.351562 446.863281 589.539062 422.210938 Z M 718.257812 127.792969 C 717.90625 126.382812 716.496094 125.503906 715.089844 125.855469 C 714.207031 126.03125 713.503906 126.734375 713.152344 127.792969 C 708.574219 145.050781 697.304688 176.570312 672.300781 195.9375 C 655.042969 209.320312 634.792969 218.652344 613.3125 223.054688 C 611.902344 223.40625 611.023438 224.640625 611.199219 226.050781 C 611.375 227.105469 612.078125 227.808594 613.132812 227.984375 C 630.566406 232.917969 660.855469 243.480469 676.351562 261.617188 C 688.5 275.882812 699.242188 311.804688 703.996094 329.234375 C 704.347656 330.644531 705.757812 331.347656 707.164062 330.996094 C 708.046875 330.820312 708.75 330.117188 708.925781 329.234375 C 713.855469 311.453125 726.359375 274.648438 749.953125 258.976562 C 770.910156 244.890625 794.328125 238.023438 807.710938 234.855469 C 809.121094 234.5 810 233.09375 809.648438 231.683594 C 809.472656 230.804688 808.765625 230.097656 807.886719 229.746094 C 791.863281 224.992188 762.28125 214.425781 750.128906 198.402344 C 731.289062 173.925781 722.132812 144.167969 718.257812 127.792969 Z M 718.257812 127.792969 " fill-opacity="1" fill-rule="nonzero"/></g></svg>