<svg xmlns="http://www.w3.org/2000/svg" xmlns:xlink="http://www.w3.org/1999/xlink" width="1080" zoomAndPan="magnify" viewBox="0 0 810 809.999993" height="1080" preserveAspectRatio="xMidYMid meet" version="1.0"><rect x="-81" width="972" fill="#ffffff" y="-80.999999" height="971.999992" fill-opacity="1"/><rect x="-81" width="972" fill="#ffffff" y="-80.999999" height="971.999992" fill-opacity="1"/><path fill="#acadf9" d="M 263.953125 73.515625 C 263.074219 69.992188 259.726562 67.878906 256.207031 68.757812 C 253.917969 69.289062 251.980469 71.226562 251.453125 73.515625 C 240.183594 115.773438 212.359375 193.78125 151.082031 241.5 C 108.46875 274.605469 58.636719 297.496094 5.8125 308.238281 C 2.289062 308.941406 0 312.289062 0.703125 315.808594 C 1.234375 318.273438 2.992188 320.035156 5.28125 320.738281 C 48.246094 332.714844 122.910156 358.949219 160.765625 403.5 C 190.703125 438.71875 217.292969 526.9375 228.914062 570.078125 C 229.96875 573.425781 233.492188 575.539062 236.835938 574.480469 C 238.949219 573.953125 240.710938 572.191406 241.238281 570.078125 C 253.214844 526.234375 284.203125 435.546875 342.136719 396.984375 C 393.90625 362.472656 451.488281 345.214844 484.0625 337.46875 C 487.585938 336.585938 489.523438 333.066406 488.640625 329.542969 C 488.113281 327.429688 486.527344 325.671875 484.414062 325.140625 C 445.148438 313.519531 372.070312 287.285156 342.136719 248.015625 C 295.648438 187.089844 273.464844 113.660156 263.953125 73.515625 Z M 589.539062 435.371094 C 589.011719 433.257812 586.898438 432.027344 584.785156 432.554688 C 583.375 432.90625 582.320312 433.964844 581.96875 435.371094 C 575.101562 461.257812 558.019531 508.976562 520.511719 538.03125 C 494.453125 558.28125 463.988281 572.191406 431.589844 578.707031 C 429.476562 579.058594 428.066406 581.171875 428.59375 583.285156 C 428.949219 584.695312 430.003906 585.925781 431.414062 586.277344 C 457.648438 593.675781 503.433594 609.523438 526.5 636.816406 C 544.8125 658.296875 561.011719 712.355469 568.234375 738.769531 C 568.761719 740.882812 571.050781 742.117188 572.988281 741.585938 C 574.394531 741.234375 575.277344 740.179688 575.804688 738.769531 C 583.199219 712.003906 602.042969 656.539062 637.433594 632.941406 C 669.128906 611.8125 704.347656 601.246094 724.246094 596.492188 C 726.359375 595.964844 727.589844 593.851562 727.0625 591.738281 C 726.710938 590.328125 725.652344 589.273438 724.421875 588.921875 C 700.296875 581.699219 655.746094 565.851562 637.433594 541.730469 C 608.910156 504.925781 595.351562 460.023438 589.539062 435.371094 Z M 718.257812 140.957031 C 717.90625 139.546875 716.496094 138.667969 715.089844 139.019531 C 714.207031 139.195312 713.503906 139.898438 713.152344 140.957031 C 708.574219 158.210938 697.304688 189.730469 672.300781 209.101562 C 655.042969 222.484375 634.792969 231.816406 613.3125 236.21875 C 611.902344 236.570312 611.023438 237.804688 611.199219 239.210938 C 611.375 240.269531 612.078125 240.972656 613.132812 241.148438 C 630.566406 246.078125 660.855469 256.644531 676.351562 274.78125 C 688.5 289.042969 699.242188 324.964844 703.996094 342.398438 C 704.347656 343.808594 705.757812 344.511719 707.164062 344.160156 C 708.046875 343.984375 708.75 343.277344 708.925781 342.398438 C 713.855469 324.613281 726.359375 287.8125 749.953125 272.140625 C 770.910156 258.054688 794.328125 251.1875 807.710938 248.015625 C 809.121094 247.664062 810 246.253906 809.648438 244.847656 C 809.472656 243.964844 808.765625 243.261719 807.886719 242.910156 C 791.863281 238.15625 762.28125 227.589844 750.128906 211.566406 C 731.289062 187.089844 722.132812 157.332031 718.257812 140.957031 Z M 718.257812 140.957031 " fill-opacity="1" fill-rule="nonzero"/></svg>