<svg xmlns="http://www.w3.org/2000/svg" xmlns:xlink="http://www.w3.org/1999/xlink" width="1080" zoomAndPan="magnify" viewBox="0 0 810 809.999993" height="1080" preserveAspectRatio="xMidYMid meet" version="1.0"><path fill="#000000" d="M 810 405 C 810 181.351562 628.648438 0 405 0 C 181.351562 0 0 181.351562 0 405 C 0 628.648438 181.351562 810 405 810 C 628.648438 810 810 628.648438 810 405 Z M 36.824219 405 C 36.824219 201.675781 201.601562 36.824219 405 36.824219 C 608.398438 36.824219 773.175781 201.675781 773.175781 405 C 773.175781 608.324219 608.324219 773.175781 405 773.175781 C 201.675781 773.175781 36.824219 608.324219 36.824219 405 Z M 36.824219 405 " fill-opacity="1" fill-rule="nonzero"/><path fill="#000000" d="M 420.449219 638.699219 L 420.449219 405 L 497.625 405 L 509.773438 327.601562 L 420.449219 327.601562 L 420.449219 288.824219 C 420.449219 268.574219 427.050781 249.375 456.074219 249.375 L 514.050781 249.375 L 514.050781 172.050781 L 431.699219 172.050781 C 362.476562 172.050781 343.574219 217.574219 343.574219 280.875 L 343.574219 327.75 L 296.023438 327.75 L 296.023438 405 L 343.574219 405 L 343.574219 638.699219 Z M 420.449219 638.699219 " fill-opacity="1" fill-rule="nonzero"/></svg>