<svg xmlns="http://www.w3.org/2000/svg" xmlns:xlink="http://www.w3.org/1999/xlink" width="1080" zoomAndPan="magnify" viewBox="0 0 810 809.999993" height="1080" preserveAspectRatio="xMidYMid meet" version="1.0"><defs><clipPath id="8aea3e43b1"><path d="M 26.832031 0 L 782.832031 0 L 782.832031 810 L 26.832031 810 Z M 26.832031 0 " clip-rule="nonzero"/></clipPath><clipPath id="116bc8a833"><path d="M 26.832031 0 L 782.832031 0 L 782.832031 810 L 26.832031 810 Z M 26.832031 0 " clip-rule="nonzero"/></clipPath></defs><rect x="-81" width="972" fill="#ffffff" y="-80.999999" height="971.999992" fill-opacity="1"/><rect x="-81" width="972" fill="#ffffff" y="-80.999999" height="971.999992" fill-opacity="1"/><path fill="#acadf9" d="M 242.996094 729 C 235.558594 729 229.496094 722.933594 229.496094 715.5 C 229.496094 708.0625 235.558594 702 242.996094 702 C 250.429688 702 256.496094 708.0625 256.496094 715.5 C 256.496094 722.933594 250.429688 729 242.996094 729 Z M 242.996094 675 C 220.636719 675 202.496094 693.140625 202.496094 715.5 C 202.496094 737.859375 220.636719 756 242.996094 756 C 265.355469 756 283.496094 737.859375 283.496094 715.5 C 283.496094 693.140625 265.355469 675 242.996094 675 " fill-opacity="1" fill-rule="nonzero"/><g clip-path="url(#8aea3e43b1)"><path fill="#acadf9" d="M 715.496094 729 L 418.496094 729 C 416.015625 729 413.644531 728.683594 411.324219 728.261719 L 755.996094 383.589844 L 755.996094 688.5 C 755.996094 710.859375 737.855469 729 715.496094 729 Z M 391.496094 783 L 94.496094 783 C 72.136719 783 53.996094 764.859375 53.996094 742.5 L 53.996094 121.5 C 53.996094 99.140625 72.136719 81 94.496094 81 L 148.496094 81 L 148.496094 108 C 148.496094 122.871094 160.625 135 175.496094 135 L 310.496094 135 C 325.367188 135 337.496094 122.871094 337.496094 108 L 337.496094 81 L 350.996094 81 L 350.996094 688.5 C 350.996094 725.730469 381.265625 756 418.496094 756 L 429.515625 756 C 423.925781 771.660156 409.054688 783 391.496094 783 Z M 175.496094 81 L 310.496094 81 L 310.496094 108 L 175.496094 108 Z M 418.496094 27 L 472.496094 27 L 472.496094 54 C 472.496094 68.871094 484.625 81 499.496094 81 L 634.496094 81 C 649.367188 81 661.496094 68.871094 661.496094 54 L 661.496094 27 L 715.496094 27 C 737.855469 27 755.996094 45.140625 755.996094 67.5 L 755.996094 102.410156 L 377.996094 480.410156 L 377.996094 67.5 C 377.996094 45.140625 396.136719 27 418.496094 27 Z M 499.496094 27 L 634.496094 27 L 634.496094 54 L 499.496094 54 Z M 755.996094 183.410156 L 377.996094 561.410156 L 377.996094 518.589844 L 755.996094 140.589844 Z M 755.996094 345.410156 L 387.328125 714.074219 C 381.582031 707.0625 377.996094 698.253906 377.996094 688.5 L 377.996094 599.589844 L 755.996094 221.589844 Z M 715.496094 0 L 418.496094 0 C 385.90625 0 358.640625 23.203125 352.367188 54 L 94.496094 54 C 57.265625 54 26.996094 84.269531 26.996094 121.5 L 26.996094 742.5 C 26.996094 779.730469 57.265625 810 94.496094 810 L 391.496094 810 C 424.085938 810 451.347656 786.796875 457.625 756 L 715.496094 756 C 752.726562 756 782.996094 725.730469 782.996094 688.5 L 782.996094 67.5 C 782.996094 30.269531 752.726562 0 715.496094 0 " fill-opacity="1" fill-rule="nonzero"/></g><path fill="#acadf9" d="M 566.996094 675 C 559.558594 675 553.496094 668.933594 553.496094 661.5 C 553.496094 654.0625 559.558594 648 566.996094 648 C 574.429688 648 580.496094 654.0625 580.496094 661.5 C 580.496094 668.933594 574.429688 675 566.996094 675 Z M 566.996094 621 C 544.636719 621 526.496094 639.140625 526.496094 661.5 C 526.496094 683.859375 544.636719 702 566.996094 702 C 589.355469 702 607.496094 683.859375 607.496094 661.5 C 607.496094 639.140625 589.355469 621 566.996094 621 " fill-opacity="1" fill-rule="nonzero"/><path fill="#acadf9" d="M 242.996094 729 C 235.558594 729 229.496094 722.933594 229.496094 715.5 C 229.496094 708.0625 235.558594 702 242.996094 702 C 250.429688 702 256.496094 708.0625 256.496094 715.5 C 256.496094 722.933594 250.429688 729 242.996094 729 Z M 242.996094 675 C 220.636719 675 202.496094 693.140625 202.496094 715.5 C 202.496094 737.859375 220.636719 756 242.996094 756 C 265.355469 756 283.496094 737.859375 283.496094 715.5 C 283.496094 693.140625 265.355469 675 242.996094 675 " fill-opacity="1" fill-rule="nonzero"/><g clip-path="url(#116bc8a833)"><path fill="#acadf9" d="M 715.496094 729 L 418.496094 729 C 416.015625 729 413.644531 728.683594 411.324219 728.261719 L 755.996094 383.589844 L 755.996094 688.5 C 755.996094 710.859375 737.855469 729 715.496094 729 Z M 391.496094 783 L 94.496094 783 C 72.136719 783 53.996094 764.859375 53.996094 742.5 L 53.996094 121.5 C 53.996094 99.140625 72.136719 81 94.496094 81 L 148.496094 81 L 148.496094 108 C 148.496094 122.871094 160.625 135 175.496094 135 L 310.496094 135 C 325.367188 135 337.496094 122.871094 337.496094 108 L 337.496094 81 L 350.996094 81 L 350.996094 688.5 C 350.996094 725.730469 381.265625 756 418.496094 756 L 429.515625 756 C 423.925781 771.660156 409.054688 783 391.496094 783 Z M 175.496094 81 L 310.496094 81 L 310.496094 108 L 175.496094 108 Z M 418.496094 27 L 472.496094 27 L 472.496094 54 C 472.496094 68.871094 484.625 81 499.496094 81 L 634.496094 81 C 649.367188 81 661.496094 68.871094 661.496094 54 L 661.496094 27 L 715.496094 27 C 737.855469 27 755.996094 45.140625 755.996094 67.5 L 755.996094 102.410156 L 377.996094 480.410156 L 377.996094 67.5 C 377.996094 45.140625 396.136719 27 418.496094 27 Z M 499.496094 27 L 634.496094 27 L 634.496094 54 L 499.496094 54 Z M 755.996094 183.410156 L 377.996094 561.410156 L 377.996094 518.589844 L 755.996094 140.589844 Z M 755.996094 345.410156 L 387.328125 714.074219 C 381.582031 707.0625 377.996094 698.253906 377.996094 688.5 L 377.996094 599.589844 L 755.996094 221.589844 Z M 715.496094 0 L 418.496094 0 C 385.90625 0 358.640625 23.203125 352.367188 54 L 94.496094 54 C 57.265625 54 26.996094 84.269531 26.996094 121.5 L 26.996094 742.5 C 26.996094 779.730469 57.265625 810 94.496094 810 L 391.496094 810 C 424.085938 810 451.347656 786.796875 457.625 756 L 715.496094 756 C 752.726562 756 782.996094 725.730469 782.996094 688.5 L 782.996094 67.5 C 782.996094 30.269531 752.726562 0 715.496094 0 " fill-opacity="1" fill-rule="nonzero"/></g><path fill="#acadf9" d="M 566.996094 675 C 559.558594 675 553.496094 668.933594 553.496094 661.5 C 553.496094 654.0625 559.558594 648 566.996094 648 C 574.429688 648 580.496094 654.0625 580.496094 661.5 C 580.496094 668.933594 574.429688 675 566.996094 675 Z M 566.996094 621 C 544.636719 621 526.496094 639.140625 526.496094 661.5 C 526.496094 683.859375 544.636719 702 566.996094 702 C 589.355469 702 607.496094 683.859375 607.496094 661.5 C 607.496094 639.140625 589.355469 621 566.996094 621 " fill-opacity="1" fill-rule="nonzero"/></svg>